# xmcd
#
# Track frame offsets: 
#        150
#        9030
#        20855
#        49012
#        64622
#        86447
#
# Disc length: 1305 seconds
#
# Revision: 0
# Processed by: cddbd v1.5PL3 Copyright (c) Steve Scherf et al.
# Submitted via: ExactAudioCopy v0.95a3
#
DISCID=3c051706
DTITLE=Silver-Rose - Keen Kiss Me
DYEAR=1993
DGENRE=Rock
TTITLE0=Injure On The Face
TTITLE1=Deep
TTITLE2=Lonely dancer
TTITLE3=Secret
TTITLE4=Keen Kiss Me
TTITLE5=LIE
EXTD=
EXTT0=
EXTT1=
EXTT2=
EXTT3=
EXTT4=
EXTT5=
PLAYORDER=
